<svg xmlns="http://www.w3.org/2000/svg" width="400" height="300" viewBox="0 0 400 300">
  <!-- Background -->
  <rect width="400" height="300" fill="#f8fafc"/>
  
  <!-- Grid pattern -->
  <defs>
    <pattern id="grid" width="20" height="20" patternUnits="userSpaceOnUse">
      <path d="M 20 0 L 0 0 0 20" fill="none" stroke="#e5e7eb" stroke-width="1"/>
    </pattern>
  </defs>
  <rect width="400" height="300" fill="url(#grid)"/>
  
  <!-- Main icon -->
  <circle cx="200" cy="120" r="40" fill="#2563eb" opacity="0.1"/>
  <path d="M180 100 L180 140 L220 140 L220 100 Z M190 110 L190 130 L210 130 L210 110 Z" fill="#2563eb"/>
  
  <!-- Decorative elements -->
  <circle cx="120" cy="80" r="6" fill="#64748b" opacity="0.3"/>
  <circle cx="280" cy="90" r="4" fill="#64748b" opacity="0.3"/>
  <circle cx="150" cy="200" r="5" fill="#64748b" opacity="0.3"/>
  <circle cx="250" cy="190" r="7" fill="#64748b" opacity="0.3"/>
  
  <!-- Tech lines -->
  <path d="M50 180 L120 180 L120 220 L180 220" stroke="#2563eb" stroke-width="2" fill="none" opacity="0.4"/>
  <path d="M220 220 L280 220 L280 180 L350 180" stroke="#2563eb" stroke-width="2" fill="none" opacity="0.4"/>
  
  <!-- Text -->
  <text x="200" y="180" text-anchor="middle" font-family="system-ui, -apple-system, sans-serif" font-size="14" fill="#64748b">
    TechViet Placeholder
  </text>
  <text x="200" y="200" text-anchor="middle" font-family="system-ui, -apple-system, sans-serif" font-size="12" fill="#9ca3af">
    400 × 300
  </text>
  
  <!-- Corner accents -->
  <path d="M20 20 L40 20 L40 40" stroke="#2563eb" stroke-width="3" fill="none" opacity="0.6"/>
  <path d="M360 20 L380 20 L380 40" stroke="#2563eb" stroke-width="3" fill="none" opacity="0.6"/>
  <path d="M20 260 L40 260 L40 280" stroke="#2563eb" stroke-width="3" fill="none" opacity="0.6"/>
  <path d="M360 260 L380 260 L380 280" stroke="#2563eb" stroke-width="3" fill="none" opacity="0.6"/>
</svg>
